<mxfile host="app.diagrams.net" modified="2024-05-07T21:56:23.962Z" agent="Mozilla/5.0 (Macintosh; Intel Mac OS X 10_15_7) AppleWebKit/605.1.15 (KHTML, like Gecko) Version/16.6 Safari/605.1.15" etag="2KhyMXFWNaZx1C0TfVJq" version="24.3.1" type="device">
  <diagram id="C5RBs43oDa-KdzZeNtuy" name="Page-1">
    <mxGraphModel dx="2385" dy="2534" grid="1" gridSize="10" guides="1" tooltips="1" connect="1" arrows="1" fold="1" page="1" pageScale="1" pageWidth="827" pageHeight="1169" math="0" shadow="0">
      <root>
        <mxCell id="WIyWlLk6GJQsqaUBKTNV-0" />
        <mxCell id="WIyWlLk6GJQsqaUBKTNV-1" parent="WIyWlLk6GJQsqaUBKTNV-0" />
        <mxCell id="-8hRT2i1nHLTr9b380bQ-0" value="&lt;span lang=&quot;UK&quot; style=&quot;font-weight: 400; font-size: 14pt; font-family: &amp;quot;Times New Roman&amp;quot;, serif;&quot;&gt;DbFavoriteRepository&lt;/span&gt;&lt;span style=&quot;font-family: -webkit-standard; font-size: medium; font-weight: 400;&quot;&gt;&lt;/span&gt;" style="swimlane;fontStyle=1;align=center;verticalAlign=top;childLayout=stackLayout;horizontal=1;startSize=30;horizontalStack=0;resizeParent=1;resizeParentMax=0;resizeLast=0;collapsible=1;marginBottom=0;whiteSpace=wrap;html=1;" vertex="1" parent="WIyWlLk6GJQsqaUBKTNV-1">
          <mxGeometry x="1200" y="92" width="500" height="202" as="geometry" />
        </mxCell>
        <mxCell id="-8hRT2i1nHLTr9b380bQ-1" value="&lt;p style=&quot;margin: 0cm; font-size: medium; font-family: Calibri, sans-serif; line-height: 24px;&quot; class=&quot;MsoNormal&quot;&gt;&lt;span style=&quot;font-size: 14pt; line-height: 28px; font-family: &amp;quot;Times New Roman&amp;quot;, serif;&quot; lang=&quot;UK&quot;&gt;&amp;nbsp;&amp;nbsp;- database: db.MyDatabase&lt;/span&gt;&lt;/p&gt;" style="text;strokeColor=none;fillColor=none;align=left;verticalAlign=top;spacingLeft=4;spacingRight=4;overflow=hidden;rotatable=0;points=[[0,0.5],[1,0.5]];portConstraint=eastwest;whiteSpace=wrap;html=1;" vertex="1" parent="-8hRT2i1nHLTr9b380bQ-0">
          <mxGeometry y="30" width="500" height="34" as="geometry" />
        </mxCell>
        <mxCell id="-8hRT2i1nHLTr9b380bQ-2" value="" style="line;strokeWidth=1;fillColor=none;align=left;verticalAlign=middle;spacingTop=-1;spacingLeft=3;spacingRight=3;rotatable=0;labelPosition=right;points=[];portConstraint=eastwest;strokeColor=inherit;" vertex="1" parent="-8hRT2i1nHLTr9b380bQ-0">
          <mxGeometry y="64" width="500" height="8" as="geometry" />
        </mxCell>
        <mxCell id="-8hRT2i1nHLTr9b380bQ-3" value="&lt;p style=&quot;margin: 0cm; font-size: medium; font-family: Calibri, sans-serif; line-height: 24px;&quot; class=&quot;MsoNormal&quot;&gt;&lt;span style=&quot;font-size: 14pt; line-height: 28px; font-family: &amp;quot;Times New Roman&amp;quot;, serif;&quot; lang=&quot;UK&quot;&gt;&amp;nbsp;&amp;nbsp;+ DbFavoriteRepository(database: db.MyDatabase)&lt;/span&gt;&lt;/p&gt;&lt;p style=&quot;margin: 0cm; font-size: medium; font-family: Calibri, sans-serif; line-height: 24px;&quot; class=&quot;MsoNormal&quot;&gt;&lt;span style=&quot;font-size: 14pt; line-height: 28px; font-family: &amp;quot;Times New Roman&amp;quot;, serif;&quot; lang=&quot;UK&quot;&gt;&amp;nbsp;&amp;nbsp;+ watchTranslations(): Stream&amp;lt;List&amp;lt;Translation&amp;gt;&amp;gt;&lt;/span&gt;&lt;/p&gt;&lt;p style=&quot;margin: 0cm; font-size: medium; font-family: Calibri, sans-serif; line-height: 24px;&quot; class=&quot;MsoNormal&quot;&gt;&lt;span style=&quot;font-size: 14pt; line-height: 28px; font-family: &amp;quot;Times New Roman&amp;quot;, serif;&quot; lang=&quot;UK&quot;&gt;&amp;nbsp;&amp;nbsp;+ insertTranslation(translation: Translation): Future&amp;lt;void&amp;gt;&lt;/span&gt;&lt;/p&gt;&lt;p style=&quot;margin: 0cm; font-size: medium; font-family: Calibri, sans-serif; line-height: 24px;&quot; class=&quot;MsoNormal&quot;&gt;&lt;span style=&quot;font-size: 14pt; line-height: 28px; font-family: &amp;quot;Times New Roman&amp;quot;, serif;&quot; lang=&quot;UK&quot;&gt;&amp;nbsp;&amp;nbsp;+ removeTranslation(translation: Translation): Future&amp;lt;void&amp;gt;&lt;/span&gt;&lt;/p&gt;" style="text;strokeColor=none;fillColor=none;align=left;verticalAlign=top;spacingLeft=4;spacingRight=4;overflow=hidden;rotatable=0;points=[[0,0.5],[1,0.5]];portConstraint=eastwest;whiteSpace=wrap;html=1;" vertex="1" parent="-8hRT2i1nHLTr9b380bQ-0">
          <mxGeometry y="72" width="500" height="130" as="geometry" />
        </mxCell>
        <mxCell id="-8hRT2i1nHLTr9b380bQ-4" value="&lt;span style=&quot;font-weight: 400; text-align: start; font-size: 14pt; font-family: &amp;quot;Times New Roman&amp;quot;, serif;&quot; lang=&quot;UK&quot;&gt;GoogleTranslatorRepository&lt;/span&gt;&lt;span style=&quot;font-family: -webkit-standard; font-size: medium; font-weight: 400; text-align: start;&quot;&gt;&lt;/span&gt;&lt;br&gt;&lt;br&gt;&lt;span style=&quot;font-family: -webkit-standard; font-size: medium; font-weight: 400;&quot;&gt;&lt;/span&gt;" style="swimlane;fontStyle=1;align=center;verticalAlign=top;childLayout=stackLayout;horizontal=1;startSize=30;horizontalStack=0;resizeParent=1;resizeParentMax=0;resizeLast=0;collapsible=1;marginBottom=0;whiteSpace=wrap;html=1;" vertex="1" parent="WIyWlLk6GJQsqaUBKTNV-1">
          <mxGeometry x="145" y="92" width="610" height="238" as="geometry" />
        </mxCell>
        <mxCell id="-8hRT2i1nHLTr9b380bQ-5" value="&lt;p style=&quot;margin: 0cm; font-size: medium; font-family: Calibri, sans-serif; line-height: 24px;&quot; class=&quot;MsoNormal&quot;&gt;&lt;span style=&quot;font-size: 14pt; line-height: 28px; font-family: &amp;quot;Times New Roman&amp;quot;, serif;&quot; lang=&quot;UK&quot;&gt;&amp;nbsp;&amp;nbsp;- baseUrl: String&lt;/span&gt;&lt;/p&gt;&lt;p style=&quot;margin: 0cm; font-size: medium; font-family: Calibri, sans-serif; line-height: 24px;&quot; class=&quot;MsoNormal&quot;&gt;&lt;span style=&quot;font-size: 14pt; line-height: 28px; font-family: &amp;quot;Times New Roman&amp;quot;, serif;&quot; lang=&quot;UK&quot;&gt;&amp;nbsp;&amp;nbsp;- apiKey: String&lt;/span&gt;&lt;/p&gt;" style="text;strokeColor=none;fillColor=none;align=left;verticalAlign=top;spacingLeft=4;spacingRight=4;overflow=hidden;rotatable=0;points=[[0,0.5],[1,0.5]];portConstraint=eastwest;whiteSpace=wrap;html=1;" vertex="1" parent="-8hRT2i1nHLTr9b380bQ-4">
          <mxGeometry y="30" width="610" height="70" as="geometry" />
        </mxCell>
        <mxCell id="-8hRT2i1nHLTr9b380bQ-6" value="" style="line;strokeWidth=1;fillColor=none;align=left;verticalAlign=middle;spacingTop=-1;spacingLeft=3;spacingRight=3;rotatable=0;labelPosition=right;points=[];portConstraint=eastwest;strokeColor=inherit;" vertex="1" parent="-8hRT2i1nHLTr9b380bQ-4">
          <mxGeometry y="100" width="610" height="8" as="geometry" />
        </mxCell>
        <mxCell id="-8hRT2i1nHLTr9b380bQ-7" value="&lt;p style=&quot;margin: 0cm; font-size: medium; font-family: Calibri, sans-serif; line-height: 24px;&quot; class=&quot;MsoNormal&quot;&gt;&lt;span style=&quot;font-size: 14pt; line-height: 28px; font-family: &amp;quot;Times New Roman&amp;quot;, serif;&quot; lang=&quot;UK&quot;&gt;+ GoogleTranslatorRepository(baseUrl: String, apiKey: String)&lt;/span&gt;&lt;/p&gt;&lt;p style=&quot;margin: 0cm; font-size: medium; font-family: Calibri, sans-serif; line-height: 24px;&quot; class=&quot;MsoNormal&quot;&gt;&lt;span style=&quot;font-size: 14pt; line-height: 28px; font-family: &amp;quot;Times New Roman&amp;quot;, serif;&quot; lang=&quot;UK&quot;&gt;&amp;nbsp;&amp;nbsp;+ getSupportedLanguages(): Future&amp;lt;List&amp;lt;Language&amp;gt;&amp;gt;&lt;/span&gt;&lt;/p&gt;&lt;p style=&quot;margin: 0cm; font-size: medium; font-family: Calibri, sans-serif; line-height: 24px;&quot; class=&quot;MsoNormal&quot;&gt;&lt;span style=&quot;font-size: 14pt; line-height: 28px; font-family: &amp;quot;Times New Roman&amp;quot;, serif;&quot; lang=&quot;UK&quot;&gt;&amp;nbsp;&amp;nbsp;+ translate(text: String, from: Language, to: Language): Future&amp;lt;Translation&amp;gt;&lt;/span&gt;&lt;/p&gt;" style="text;strokeColor=none;fillColor=none;align=left;verticalAlign=top;spacingLeft=4;spacingRight=4;overflow=hidden;rotatable=0;points=[[0,0.5],[1,0.5]];portConstraint=eastwest;whiteSpace=wrap;html=1;" vertex="1" parent="-8hRT2i1nHLTr9b380bQ-4">
          <mxGeometry y="108" width="610" height="130" as="geometry" />
        </mxCell>
        <mxCell id="-8hRT2i1nHLTr9b380bQ-8" value="&lt;span style=&quot;font-weight: 400; text-align: start; font-size: 14pt; font-family: &amp;quot;Times New Roman&amp;quot;, serif;&quot; lang=&quot;UK&quot;&gt;FavoritesCubit&lt;/span&gt;&lt;span style=&quot;font-family: -webkit-standard; font-size: medium; font-weight: 400; text-align: start;&quot;&gt;&lt;/span&gt;&lt;br&gt;&lt;br&gt;&lt;span style=&quot;font-family: -webkit-standard; font-size: medium; font-weight: 400;&quot;&gt;&lt;/span&gt;" style="swimlane;fontStyle=1;align=center;verticalAlign=top;childLayout=stackLayout;horizontal=1;startSize=30;horizontalStack=0;resizeParent=1;resizeParentMax=0;resizeLast=0;collapsible=1;marginBottom=0;whiteSpace=wrap;html=1;" vertex="1" parent="WIyWlLk6GJQsqaUBKTNV-1">
          <mxGeometry x="1216" y="-140" width="510" height="140" as="geometry" />
        </mxCell>
        <mxCell id="-8hRT2i1nHLTr9b380bQ-9" value="&lt;p style=&quot;margin: 0cm; font-size: medium; font-family: Calibri, sans-serif; line-height: 24px;&quot; class=&quot;MsoNormal&quot;&gt;&lt;span style=&quot;font-size: 14pt; line-height: 28px; font-family: &amp;quot;Times New Roman&amp;quot;, serif;&quot; lang=&quot;UK&quot;&gt;&amp;nbsp;&amp;nbsp;- favoriteRepository: IFavoriteRepository&lt;/span&gt;&lt;/p&gt;" style="text;strokeColor=none;fillColor=none;align=left;verticalAlign=top;spacingLeft=4;spacingRight=4;overflow=hidden;rotatable=0;points=[[0,0.5],[1,0.5]];portConstraint=eastwest;whiteSpace=wrap;html=1;" vertex="1" parent="-8hRT2i1nHLTr9b380bQ-8">
          <mxGeometry y="30" width="510" height="34" as="geometry" />
        </mxCell>
        <mxCell id="-8hRT2i1nHLTr9b380bQ-10" value="" style="line;strokeWidth=1;fillColor=none;align=left;verticalAlign=middle;spacingTop=-1;spacingLeft=3;spacingRight=3;rotatable=0;labelPosition=right;points=[];portConstraint=eastwest;strokeColor=inherit;" vertex="1" parent="-8hRT2i1nHLTr9b380bQ-8">
          <mxGeometry y="64" width="510" height="8" as="geometry" />
        </mxCell>
        <mxCell id="-8hRT2i1nHLTr9b380bQ-11" value="&lt;p style=&quot;margin: 0cm; font-size: medium; font-family: Calibri, sans-serif; line-height: 24px;&quot; class=&quot;MsoNormal&quot;&gt;&lt;span style=&quot;font-size: 14pt; line-height: 28px; font-family: &amp;quot;Times New Roman&amp;quot;, serif;&quot; lang=&quot;UK&quot;&gt;&amp;nbsp;&amp;nbsp;+ FavoritesCubit(favoriteRepository: IFavoriteRepository)&lt;/span&gt;&lt;/p&gt;&lt;p style=&quot;margin: 0cm; font-size: medium; font-family: Calibri, sans-serif; line-height: 24px;&quot; class=&quot;MsoNormal&quot;&gt;&lt;span style=&quot;font-size: 14pt; line-height: 28px; font-family: &amp;quot;Times New Roman&amp;quot;, serif;&quot; lang=&quot;UK&quot;&gt;&amp;nbsp;&amp;nbsp;+ removeFromFavorite(translation: Translation): Future&amp;lt;void&amp;gt;&lt;/span&gt;&lt;/p&gt;" style="text;strokeColor=none;fillColor=none;align=left;verticalAlign=top;spacingLeft=4;spacingRight=4;overflow=hidden;rotatable=0;points=[[0,0.5],[1,0.5]];portConstraint=eastwest;whiteSpace=wrap;html=1;" vertex="1" parent="-8hRT2i1nHLTr9b380bQ-8">
          <mxGeometry y="72" width="510" height="68" as="geometry" />
        </mxCell>
        <mxCell id="-8hRT2i1nHLTr9b380bQ-12" value="&lt;span style=&quot;font-weight: 400; text-align: start; font-size: 14pt; font-family: &amp;quot;Times New Roman&amp;quot;, serif;&quot; lang=&quot;UK&quot;&gt;TranslatorCubit&lt;/span&gt;&lt;span style=&quot;font-family: -webkit-standard; font-size: medium; font-weight: 400; text-align: start;&quot;&gt;&lt;/span&gt;&lt;br&gt;&lt;br&gt;&lt;span style=&quot;font-family: -webkit-standard; font-size: medium; font-weight: 400;&quot;&gt;&lt;/span&gt;" style="swimlane;fontStyle=1;align=center;verticalAlign=top;childLayout=stackLayout;horizontal=1;startSize=30;horizontalStack=0;resizeParent=1;resizeParentMax=0;resizeLast=0;collapsible=1;marginBottom=0;whiteSpace=wrap;html=1;" vertex="1" parent="WIyWlLk6GJQsqaUBKTNV-1">
          <mxGeometry x="50" y="-500" width="500" height="440" as="geometry" />
        </mxCell>
        <mxCell id="-8hRT2i1nHLTr9b380bQ-13" value="&lt;p style=&quot;margin: 0cm; font-size: medium; font-family: Calibri, sans-serif; line-height: 24px;&quot; class=&quot;MsoNormal&quot;&gt;&lt;span style=&quot;font-size: 14pt; line-height: 28px; font-family: &amp;quot;Times New Roman&amp;quot;, serif;&quot; lang=&quot;UK&quot;&gt;&amp;nbsp;&amp;nbsp;- translatorRepository: ITranslatorRepository&lt;/span&gt;&lt;/p&gt;&lt;p style=&quot;margin: 0cm; font-size: medium; font-family: Calibri, sans-serif; line-height: 24px;&quot; class=&quot;MsoNormal&quot;&gt;&lt;span style=&quot;font-size: 14pt; line-height: 28px; font-family: &amp;quot;Times New Roman&amp;quot;, serif;&quot; lang=&quot;UK&quot;&gt;&amp;nbsp;&amp;nbsp;- favoriteRepository: IFavoriteRepository&lt;/span&gt;&lt;/p&gt;" style="text;strokeColor=none;fillColor=none;align=left;verticalAlign=top;spacingLeft=4;spacingRight=4;overflow=hidden;rotatable=0;points=[[0,0.5],[1,0.5]];portConstraint=eastwest;whiteSpace=wrap;html=1;" vertex="1" parent="-8hRT2i1nHLTr9b380bQ-12">
          <mxGeometry y="30" width="500" height="70" as="geometry" />
        </mxCell>
        <mxCell id="-8hRT2i1nHLTr9b380bQ-14" value="" style="line;strokeWidth=1;fillColor=none;align=left;verticalAlign=middle;spacingTop=-1;spacingLeft=3;spacingRight=3;rotatable=0;labelPosition=right;points=[];portConstraint=eastwest;strokeColor=inherit;" vertex="1" parent="-8hRT2i1nHLTr9b380bQ-12">
          <mxGeometry y="100" width="500" height="8" as="geometry" />
        </mxCell>
        <mxCell id="-8hRT2i1nHLTr9b380bQ-15" value="&lt;p style=&quot;margin: 0cm; font-size: medium; font-family: Calibri, sans-serif; line-height: 24px;&quot; class=&quot;MsoNormal&quot;&gt;&lt;span style=&quot;font-size: 14pt; line-height: 28px; font-family: &amp;quot;Times New Roman&amp;quot;, serif;&quot; lang=&quot;UK&quot;&gt;&amp;nbsp;&amp;nbsp;+ TranslatorCubit(translatorRepository: ITranslatorRepository, favoriteRepository: IFavoriteRepository)&lt;/span&gt;&lt;/p&gt;&lt;p style=&quot;margin: 0cm; font-size: medium; font-family: Calibri, sans-serif; line-height: 24px;&quot; class=&quot;MsoNormal&quot;&gt;&lt;span style=&quot;font-size: 14pt; line-height: 28px; font-family: &amp;quot;Times New Roman&amp;quot;, serif;&quot; lang=&quot;UK&quot;&gt;&amp;nbsp;&amp;nbsp;+ fetchLanguages(): Future&amp;lt;void&amp;gt;&lt;/span&gt;&lt;/p&gt;&lt;p style=&quot;margin: 0cm; font-size: medium; font-family: Calibri, sans-serif; line-height: 24px;&quot; class=&quot;MsoNormal&quot;&gt;&lt;span style=&quot;font-size: 14pt; line-height: 28px; font-family: &amp;quot;Times New Roman&amp;quot;, serif;&quot; lang=&quot;UK&quot;&gt;&amp;nbsp;&amp;nbsp;+ changeFromLanguage(newLanguage: Language): void&lt;/span&gt;&lt;/p&gt;&lt;p style=&quot;margin: 0cm; font-size: medium; font-family: Calibri, sans-serif; line-height: 24px;&quot; class=&quot;MsoNormal&quot;&gt;&lt;span style=&quot;font-size: 14pt; line-height: 28px; font-family: &amp;quot;Times New Roman&amp;quot;, serif;&quot; lang=&quot;UK&quot;&gt;&amp;nbsp;&amp;nbsp;+ changeToLanguage(newLanguage: Language): void&lt;/span&gt;&lt;/p&gt;&lt;p style=&quot;margin: 0cm; font-size: medium; font-family: Calibri, sans-serif; line-height: 24px;&quot; class=&quot;MsoNormal&quot;&gt;&lt;span style=&quot;font-size: 14pt; line-height: 28px; font-family: &amp;quot;Times New Roman&amp;quot;, serif;&quot; lang=&quot;UK&quot;&gt;&amp;nbsp;&amp;nbsp;+ swapLanguages(): void&lt;/span&gt;&lt;/p&gt;&lt;p style=&quot;margin: 0cm; font-size: medium; font-family: Calibri, sans-serif; line-height: 24px;&quot; class=&quot;MsoNormal&quot;&gt;&lt;span style=&quot;font-size: 14pt; line-height: 28px; font-family: &amp;quot;Times New Roman&amp;quot;, serif;&quot; lang=&quot;UK&quot;&gt;&amp;nbsp;&amp;nbsp;+ textChanged(text: String): void&lt;/span&gt;&lt;/p&gt;&lt;p style=&quot;margin: 0cm; font-size: medium; font-family: Calibri, sans-serif; line-height: 24px;&quot; class=&quot;MsoNormal&quot;&gt;&lt;span style=&quot;font-size: 14pt; line-height: 28px; font-family: &amp;quot;Times New Roman&amp;quot;, serif;&quot; lang=&quot;UK&quot;&gt;&amp;nbsp;&amp;nbsp;+ submitText(text: String): Future&amp;lt;void&amp;gt;&lt;/span&gt;&lt;/p&gt;&lt;p style=&quot;margin: 0cm; font-size: medium; font-family: Calibri, sans-serif; line-height: 24px;&quot; class=&quot;MsoNormal&quot;&gt;&lt;span style=&quot;font-size: 14pt; line-height: 28px; font-family: &amp;quot;Times New Roman&amp;quot;, serif;&quot; lang=&quot;UK&quot;&gt;&amp;nbsp;&amp;nbsp;+ addToFavorites(index: int): void&lt;/span&gt;&lt;/p&gt;&lt;p style=&quot;margin: 0cm; font-size: medium; font-family: Calibri, sans-serif; line-height: 24px;&quot; class=&quot;MsoNormal&quot;&gt;&lt;span style=&quot;font-size: 14pt; line-height: 28px; font-family: &amp;quot;Times New Roman&amp;quot;, serif;&quot; lang=&quot;UK&quot;&gt;&amp;nbsp;&amp;nbsp;+ removeFromFavorites(index: int): void&lt;/span&gt;&lt;/p&gt;&lt;p style=&quot;margin: 0cm; font-size: medium; font-family: Calibri, sans-serif; line-height: 24px;&quot; class=&quot;MsoNormal&quot;&gt;&lt;span style=&quot;font-size: 14pt; line-height: 28px; font-family: &amp;quot;Times New Roman&amp;quot;, serif;&quot; lang=&quot;UK&quot;&gt;&amp;nbsp;&amp;nbsp;+ refetchTranslation(index: int): void&lt;/span&gt;&lt;/p&gt;" style="text;strokeColor=none;fillColor=none;align=left;verticalAlign=top;spacingLeft=4;spacingRight=4;overflow=hidden;rotatable=0;points=[[0,0.5],[1,0.5]];portConstraint=eastwest;whiteSpace=wrap;html=1;" vertex="1" parent="-8hRT2i1nHLTr9b380bQ-12">
          <mxGeometry y="108" width="500" height="332" as="geometry" />
        </mxCell>
        <mxCell id="-8hRT2i1nHLTr9b380bQ-36" style="edgeStyle=orthogonalEdgeStyle;rounded=0;orthogonalLoop=1;jettySize=auto;html=1;entryX=1;entryY=0.5;entryDx=0;entryDy=0;" edge="1" parent="WIyWlLk6GJQsqaUBKTNV-1" source="-8hRT2i1nHLTr9b380bQ-16" target="-8hRT2i1nHLTr9b380bQ-15">
          <mxGeometry relative="1" as="geometry" />
        </mxCell>
        <mxCell id="-8hRT2i1nHLTr9b380bQ-40" style="edgeStyle=orthogonalEdgeStyle;rounded=0;orthogonalLoop=1;jettySize=auto;html=1;" edge="1" parent="WIyWlLk6GJQsqaUBKTNV-1" source="-8hRT2i1nHLTr9b380bQ-16" target="-8hRT2i1nHLTr9b380bQ-4">
          <mxGeometry relative="1" as="geometry" />
        </mxCell>
        <mxCell id="-8hRT2i1nHLTr9b380bQ-16" value="&lt;span style=&quot;font-weight: 400; text-align: start; font-size: 14pt; font-family: &amp;quot;Times New Roman&amp;quot;, serif;&quot; lang=&quot;UK&quot;&gt;TranslationCard&amp;nbsp;&lt;/span&gt;&lt;span style=&quot;font-family: -webkit-standard; font-size: medium; font-weight: 400; text-align: start;&quot;&gt;&lt;/span&gt;&lt;br&gt;&lt;br&gt;&lt;span style=&quot;font-family: -webkit-standard; font-size: medium; font-weight: 400;&quot;&gt;&lt;/span&gt;" style="swimlane;fontStyle=1;align=center;verticalAlign=top;childLayout=stackLayout;horizontal=1;startSize=30;horizontalStack=0;resizeParent=1;resizeParentMax=0;resizeLast=0;collapsible=1;marginBottom=0;whiteSpace=wrap;html=1;" vertex="1" parent="WIyWlLk6GJQsqaUBKTNV-1">
          <mxGeometry x="630" y="-380" width="490" height="268" as="geometry" />
        </mxCell>
        <mxCell id="-8hRT2i1nHLTr9b380bQ-17" value="&lt;p style=&quot;margin: 0cm; font-size: medium; font-family: Calibri, sans-serif; line-height: 24px;&quot; class=&quot;MsoNormal&quot;&gt;&lt;span style=&quot;font-size: 14pt; line-height: 28px; font-family: &amp;quot;Times New Roman&amp;quot;, serif;&quot; lang=&quot;UK&quot;&gt;&amp;nbsp;&amp;nbsp;- translation: Loadable&amp;lt;Translation&amp;gt;&lt;/span&gt;&lt;/p&gt;&lt;p style=&quot;margin: 0cm; font-size: medium; font-family: Calibri, sans-serif; line-height: 24px;&quot; class=&quot;MsoNormal&quot;&gt;&lt;span style=&quot;font-size: 14pt; line-height: 28px; font-family: &amp;quot;Times New Roman&amp;quot;, serif;&quot; lang=&quot;UK&quot;&gt;&amp;nbsp;&amp;nbsp;- onFavoritePressed: VoidCallback&lt;/span&gt;&lt;/p&gt;&lt;p style=&quot;margin: 0cm; font-size: medium; font-family: Calibri, sans-serif; line-height: 24px;&quot; class=&quot;MsoNormal&quot;&gt;&lt;span style=&quot;font-size: 14pt; line-height: 28px; font-family: &amp;quot;Times New Roman&amp;quot;, serif;&quot; lang=&quot;UK&quot;&gt;&amp;nbsp;&amp;nbsp;- onRestartPressed: VoidCallback&lt;/span&gt;&lt;/p&gt;" style="text;strokeColor=none;fillColor=none;align=left;verticalAlign=top;spacingLeft=4;spacingRight=4;overflow=hidden;rotatable=0;points=[[0,0.5],[1,0.5]];portConstraint=eastwest;whiteSpace=wrap;html=1;" vertex="1" parent="-8hRT2i1nHLTr9b380bQ-16">
          <mxGeometry y="30" width="490" height="100" as="geometry" />
        </mxCell>
        <mxCell id="-8hRT2i1nHLTr9b380bQ-18" value="" style="line;strokeWidth=1;fillColor=none;align=left;verticalAlign=middle;spacingTop=-1;spacingLeft=3;spacingRight=3;rotatable=0;labelPosition=right;points=[];portConstraint=eastwest;strokeColor=inherit;" vertex="1" parent="-8hRT2i1nHLTr9b380bQ-16">
          <mxGeometry y="130" width="490" height="8" as="geometry" />
        </mxCell>
        <mxCell id="-8hRT2i1nHLTr9b380bQ-19" value="&lt;p style=&quot;margin: 0cm; font-size: medium; font-family: Calibri, sans-serif; line-height: 24px;&quot; class=&quot;MsoNormal&quot;&gt;&lt;span style=&quot;font-size: 14pt; line-height: 28px; font-family: &amp;quot;Times New Roman&amp;quot;, serif;&quot; lang=&quot;UK&quot;&gt;&amp;nbsp;&amp;nbsp;+ TranslationCard(translation: Loadable&amp;lt;Translation&amp;gt;, onFavoritePressed: VoidCallback, onRestartPressed: VoidCallback)&lt;/span&gt;&lt;/p&gt;&lt;p style=&quot;margin: 0cm; font-size: medium; font-family: Calibri, sans-serif; line-height: 24px;&quot; class=&quot;MsoNormal&quot;&gt;&lt;span style=&quot;font-size: 14pt; line-height: 28px; font-family: &amp;quot;Times New Roman&amp;quot;, serif;&quot; lang=&quot;UK&quot;&gt;&amp;nbsp;&amp;nbsp;+ build(BuildContext context): Widget&lt;/span&gt;&lt;/p&gt;" style="text;strokeColor=none;fillColor=none;align=left;verticalAlign=top;spacingLeft=4;spacingRight=4;overflow=hidden;rotatable=0;points=[[0,0.5],[1,0.5]];portConstraint=eastwest;whiteSpace=wrap;html=1;" vertex="1" parent="-8hRT2i1nHLTr9b380bQ-16">
          <mxGeometry y="138" width="490" height="130" as="geometry" />
        </mxCell>
        <mxCell id="-8hRT2i1nHLTr9b380bQ-38" style="edgeStyle=orthogonalEdgeStyle;rounded=0;orthogonalLoop=1;jettySize=auto;html=1;entryX=0.5;entryY=0;entryDx=0;entryDy=0;" edge="1" parent="WIyWlLk6GJQsqaUBKTNV-1" source="-8hRT2i1nHLTr9b380bQ-20" target="-8hRT2i1nHLTr9b380bQ-8">
          <mxGeometry relative="1" as="geometry" />
        </mxCell>
        <mxCell id="-8hRT2i1nHLTr9b380bQ-20" value="&lt;span style=&quot;font-weight: 400; text-align: start; font-size: 14pt; font-family: &amp;quot;Times New Roman&amp;quot;, serif;&quot; lang=&quot;UK&quot;&gt;FavoritesScreen&amp;nbsp;&lt;/span&gt;&lt;span style=&quot;font-family: -webkit-standard; font-size: medium; font-weight: 400; text-align: start;&quot;&gt;&lt;/span&gt;&lt;br&gt;&lt;span style=&quot;font-family: -webkit-standard; font-size: medium; font-weight: 400;&quot;&gt;&lt;/span&gt;" style="swimlane;fontStyle=1;align=center;verticalAlign=top;childLayout=stackLayout;horizontal=1;startSize=30;horizontalStack=0;resizeParent=1;resizeParentMax=0;resizeLast=0;collapsible=1;marginBottom=0;whiteSpace=wrap;html=1;" vertex="1" parent="WIyWlLk6GJQsqaUBKTNV-1">
          <mxGeometry x="1220" y="-290" width="510" height="120" as="geometry" />
        </mxCell>
        <mxCell id="-8hRT2i1nHLTr9b380bQ-21" value="&lt;p style=&quot;margin: 0cm; font-size: medium; font-family: Calibri, sans-serif; line-height: 24px;&quot; class=&quot;MsoNormal&quot;&gt;&lt;br&gt;&lt;/p&gt;" style="text;strokeColor=none;fillColor=none;align=left;verticalAlign=top;spacingLeft=4;spacingRight=4;overflow=hidden;rotatable=0;points=[[0,0.5],[1,0.5]];portConstraint=eastwest;whiteSpace=wrap;html=1;" vertex="1" parent="-8hRT2i1nHLTr9b380bQ-20">
          <mxGeometry y="30" width="510" height="34" as="geometry" />
        </mxCell>
        <mxCell id="-8hRT2i1nHLTr9b380bQ-22" value="" style="line;strokeWidth=1;fillColor=none;align=left;verticalAlign=middle;spacingTop=-1;spacingLeft=3;spacingRight=3;rotatable=0;labelPosition=right;points=[];portConstraint=eastwest;strokeColor=inherit;" vertex="1" parent="-8hRT2i1nHLTr9b380bQ-20">
          <mxGeometry y="64" width="510" height="8" as="geometry" />
        </mxCell>
        <mxCell id="-8hRT2i1nHLTr9b380bQ-23" value="&lt;p style=&quot;margin: 0cm; font-size: medium; font-family: Calibri, sans-serif; line-height: 24px;&quot; class=&quot;MsoNormal&quot;&gt;&lt;span style=&quot;font-size: 14pt; line-height: 28px; font-family: &amp;quot;Times New Roman&amp;quot;, serif;&quot; lang=&quot;UK&quot;&gt;&amp;nbsp;&amp;nbsp;+ build(BuildContext context): Widget&lt;/span&gt;&lt;/p&gt;" style="text;strokeColor=none;fillColor=none;align=left;verticalAlign=top;spacingLeft=4;spacingRight=4;overflow=hidden;rotatable=0;points=[[0,0.5],[1,0.5]];portConstraint=eastwest;whiteSpace=wrap;html=1;" vertex="1" parent="-8hRT2i1nHLTr9b380bQ-20">
          <mxGeometry y="72" width="510" height="48" as="geometry" />
        </mxCell>
        <mxCell id="-8hRT2i1nHLTr9b380bQ-33" style="edgeStyle=orthogonalEdgeStyle;rounded=0;orthogonalLoop=1;jettySize=auto;html=1;entryX=0.5;entryY=0;entryDx=0;entryDy=0;" edge="1" parent="WIyWlLk6GJQsqaUBKTNV-1" source="-8hRT2i1nHLTr9b380bQ-24" target="-8hRT2i1nHLTr9b380bQ-28">
          <mxGeometry relative="1" as="geometry" />
        </mxCell>
        <mxCell id="-8hRT2i1nHLTr9b380bQ-24" value="&lt;span style=&quot;font-weight: 400; text-align: start; font-size: 14pt; font-family: &amp;quot;Times New Roman&amp;quot;, serif;&quot; lang=&quot;UK&quot;&gt;MainScreen&amp;nbsp;&lt;/span&gt;&lt;span style=&quot;font-family: -webkit-standard; font-size: medium; font-weight: 400; text-align: start;&quot;&gt;&lt;/span&gt;&lt;br&gt;&lt;span style=&quot;font-family: -webkit-standard; font-size: medium; font-weight: 400;&quot;&gt;&lt;/span&gt;" style="swimlane;fontStyle=1;align=center;verticalAlign=top;childLayout=stackLayout;horizontal=1;startSize=30;horizontalStack=0;resizeParent=1;resizeParentMax=0;resizeLast=0;collapsible=1;marginBottom=0;whiteSpace=wrap;html=1;" vertex="1" parent="WIyWlLk6GJQsqaUBKTNV-1">
          <mxGeometry x="635" y="-920" width="510" height="120" as="geometry" />
        </mxCell>
        <mxCell id="-8hRT2i1nHLTr9b380bQ-25" value="&lt;p style=&quot;margin: 0cm; font-size: medium; font-family: Calibri, sans-serif; line-height: 24px;&quot; class=&quot;MsoNormal&quot;&gt;&lt;br&gt;&lt;/p&gt;" style="text;strokeColor=none;fillColor=none;align=left;verticalAlign=top;spacingLeft=4;spacingRight=4;overflow=hidden;rotatable=0;points=[[0,0.5],[1,0.5]];portConstraint=eastwest;whiteSpace=wrap;html=1;" vertex="1" parent="-8hRT2i1nHLTr9b380bQ-24">
          <mxGeometry y="30" width="510" height="34" as="geometry" />
        </mxCell>
        <mxCell id="-8hRT2i1nHLTr9b380bQ-26" value="" style="line;strokeWidth=1;fillColor=none;align=left;verticalAlign=middle;spacingTop=-1;spacingLeft=3;spacingRight=3;rotatable=0;labelPosition=right;points=[];portConstraint=eastwest;strokeColor=inherit;" vertex="1" parent="-8hRT2i1nHLTr9b380bQ-24">
          <mxGeometry y="64" width="510" height="8" as="geometry" />
        </mxCell>
        <mxCell id="-8hRT2i1nHLTr9b380bQ-27" value="&lt;p style=&quot;margin: 0cm; font-size: medium; font-family: Calibri, sans-serif; line-height: 24px;&quot; class=&quot;MsoNormal&quot;&gt;&lt;span style=&quot;font-size: 14pt; line-height: 28px; font-family: &amp;quot;Times New Roman&amp;quot;, serif;&quot; lang=&quot;UK&quot;&gt;&amp;nbsp;&amp;nbsp;+ build(BuildContext context): Widget&lt;/span&gt;&lt;/p&gt;" style="text;strokeColor=none;fillColor=none;align=left;verticalAlign=top;spacingLeft=4;spacingRight=4;overflow=hidden;rotatable=0;points=[[0,0.5],[1,0.5]];portConstraint=eastwest;whiteSpace=wrap;html=1;" vertex="1" parent="-8hRT2i1nHLTr9b380bQ-24">
          <mxGeometry y="72" width="510" height="48" as="geometry" />
        </mxCell>
        <mxCell id="-8hRT2i1nHLTr9b380bQ-28" value="&lt;span style=&quot;font-weight: 400; text-align: start; font-size: 14pt; font-family: &amp;quot;Times New Roman&amp;quot;, serif;&quot; lang=&quot;UK&quot;&gt;TranslatorScreen&amp;nbsp;&lt;/span&gt;&lt;span style=&quot;font-family: -webkit-standard; font-size: medium; font-weight: 400; text-align: start;&quot;&gt;&lt;/span&gt;&lt;br&gt;&lt;span style=&quot;font-family: -webkit-standard; font-size: medium; font-weight: 400;&quot;&gt;&lt;/span&gt;" style="swimlane;fontStyle=1;align=center;verticalAlign=top;childLayout=stackLayout;horizontal=1;startSize=30;horizontalStack=0;resizeParent=1;resizeParentMax=0;resizeLast=0;collapsible=1;marginBottom=0;whiteSpace=wrap;html=1;" vertex="1" parent="WIyWlLk6GJQsqaUBKTNV-1">
          <mxGeometry x="570" y="-720" width="640" height="186" as="geometry" />
        </mxCell>
        <mxCell id="-8hRT2i1nHLTr9b380bQ-29" value="&lt;p style=&quot;margin: 0cm; font-size: medium; font-family: Calibri, sans-serif; caret-color: rgb(0, 0, 0); color: rgb(0, 0, 0); font-style: normal; font-variant-caps: normal; font-weight: 400; letter-spacing: normal; orphans: auto; text-align: start; text-indent: 0px; text-transform: none; white-space: normal; widows: auto; word-spacing: 0px; -webkit-text-stroke-width: 0px; text-decoration: none; line-height: 24px;&quot; class=&quot;MsoNormal&quot;&gt;&lt;span style=&quot;font-size: 14pt; line-height: 28px; font-family: &amp;quot;Times New Roman&amp;quot;, serif;&quot; lang=&quot;UK&quot;&gt;&lt;span&gt;&amp;nbsp;&lt;span class=&quot;Apple-converted-space&quot;&gt;&amp;nbsp;&lt;/span&gt;&lt;/span&gt;- translatorLoadingCard(BuildContext context, TranslatorState state): Widget&lt;/span&gt;&lt;/p&gt;&lt;p style=&quot;margin: 0cm; font-size: medium; font-family: Calibri, sans-serif; caret-color: rgb(0, 0, 0); color: rgb(0, 0, 0); font-style: normal; font-variant-caps: normal; font-weight: 400; letter-spacing: normal; orphans: auto; text-align: start; text-indent: 0px; text-transform: none; white-space: normal; widows: auto; word-spacing: 0px; -webkit-text-stroke-width: 0px; text-decoration: none; line-height: 24px;&quot; class=&quot;MsoNormal&quot;&gt;&lt;span style=&quot;font-size: 14pt; line-height: 28px; font-family: &amp;quot;Times New Roman&amp;quot;, serif;&quot; lang=&quot;UK&quot;&gt;&lt;span&gt;&amp;nbsp;&lt;span class=&quot;Apple-converted-space&quot;&gt;&amp;nbsp;&lt;/span&gt;&lt;/span&gt;- translatorErrorCard(BuildContext context, TranslatorState state): Widget&lt;/span&gt;&lt;/p&gt;&lt;p style=&quot;margin: 0cm; font-size: medium; font-family: Calibri, sans-serif; caret-color: rgb(0, 0, 0); color: rgb(0, 0, 0); font-style: normal; font-variant-caps: normal; font-weight: 400; letter-spacing: normal; orphans: auto; text-align: start; text-indent: 0px; text-transform: none; white-space: normal; widows: auto; word-spacing: 0px; -webkit-text-stroke-width: 0px; text-decoration: none; line-height: 24px;&quot; class=&quot;MsoNormal&quot;&gt;&lt;span style=&quot;font-size: 14pt; line-height: 28px; font-family: &amp;quot;Times New Roman&amp;quot;, serif;&quot; lang=&quot;UK&quot;&gt;&lt;span&gt;&amp;nbsp;&lt;span class=&quot;Apple-converted-space&quot;&gt;&amp;nbsp;&lt;/span&gt;&lt;/span&gt;- translatorLoadedCard(BuildContext context, TranslatorState state): Widget&lt;/span&gt;&lt;/p&gt;" style="text;strokeColor=none;fillColor=none;align=left;verticalAlign=top;spacingLeft=4;spacingRight=4;overflow=hidden;rotatable=0;points=[[0,0.5],[1,0.5]];portConstraint=eastwest;whiteSpace=wrap;html=1;" vertex="1" parent="-8hRT2i1nHLTr9b380bQ-28">
          <mxGeometry y="30" width="640" height="100" as="geometry" />
        </mxCell>
        <mxCell id="-8hRT2i1nHLTr9b380bQ-30" value="" style="line;strokeWidth=1;fillColor=none;align=left;verticalAlign=middle;spacingTop=-1;spacingLeft=3;spacingRight=3;rotatable=0;labelPosition=right;points=[];portConstraint=eastwest;strokeColor=inherit;" vertex="1" parent="-8hRT2i1nHLTr9b380bQ-28">
          <mxGeometry y="130" width="640" height="8" as="geometry" />
        </mxCell>
        <mxCell id="-8hRT2i1nHLTr9b380bQ-31" value="&lt;p style=&quot;margin: 0cm; font-size: medium; font-family: Calibri, sans-serif; line-height: 24px;&quot; class=&quot;MsoNormal&quot;&gt;&lt;span style=&quot;font-size: 14pt; line-height: 28px; font-family: &amp;quot;Times New Roman&amp;quot;, serif;&quot; lang=&quot;UK&quot;&gt;&amp;nbsp;&amp;nbsp;+ build(BuildContext context): Widget&lt;/span&gt;&lt;/p&gt;" style="text;strokeColor=none;fillColor=none;align=left;verticalAlign=top;spacingLeft=4;spacingRight=4;overflow=hidden;rotatable=0;points=[[0,0.5],[1,0.5]];portConstraint=eastwest;whiteSpace=wrap;html=1;" vertex="1" parent="-8hRT2i1nHLTr9b380bQ-28">
          <mxGeometry y="138" width="640" height="48" as="geometry" />
        </mxCell>
        <mxCell id="-8hRT2i1nHLTr9b380bQ-34" style="edgeStyle=orthogonalEdgeStyle;rounded=0;orthogonalLoop=1;jettySize=auto;html=1;entryX=0.5;entryY=0;entryDx=0;entryDy=0;" edge="1" parent="WIyWlLk6GJQsqaUBKTNV-1" source="-8hRT2i1nHLTr9b380bQ-29" target="-8hRT2i1nHLTr9b380bQ-12">
          <mxGeometry relative="1" as="geometry" />
        </mxCell>
        <mxCell id="-8hRT2i1nHLTr9b380bQ-35" style="edgeStyle=orthogonalEdgeStyle;rounded=0;orthogonalLoop=1;jettySize=auto;html=1;exitX=1;exitY=0.5;exitDx=0;exitDy=0;entryX=0.005;entryY=-0.015;entryDx=0;entryDy=0;entryPerimeter=0;" edge="1" parent="WIyWlLk6GJQsqaUBKTNV-1" source="-8hRT2i1nHLTr9b380bQ-15" target="-8hRT2i1nHLTr9b380bQ-19">
          <mxGeometry relative="1" as="geometry" />
        </mxCell>
        <mxCell id="-8hRT2i1nHLTr9b380bQ-37" style="edgeStyle=orthogonalEdgeStyle;rounded=0;orthogonalLoop=1;jettySize=auto;html=1;exitX=1;exitY=0.5;exitDx=0;exitDy=0;entryX=0;entryY=0.5;entryDx=0;entryDy=0;" edge="1" parent="WIyWlLk6GJQsqaUBKTNV-1" source="-8hRT2i1nHLTr9b380bQ-17" target="-8hRT2i1nHLTr9b380bQ-21">
          <mxGeometry relative="1" as="geometry" />
        </mxCell>
        <mxCell id="-8hRT2i1nHLTr9b380bQ-39" style="edgeStyle=orthogonalEdgeStyle;rounded=0;orthogonalLoop=1;jettySize=auto;html=1;entryX=0.545;entryY=0.007;entryDx=0;entryDy=0;entryPerimeter=0;" edge="1" parent="WIyWlLk6GJQsqaUBKTNV-1" source="-8hRT2i1nHLTr9b380bQ-8" target="-8hRT2i1nHLTr9b380bQ-0">
          <mxGeometry relative="1" as="geometry" />
        </mxCell>
        <mxCell id="-8hRT2i1nHLTr9b380bQ-41" style="edgeStyle=orthogonalEdgeStyle;rounded=0;orthogonalLoop=1;jettySize=auto;html=1;entryX=0.5;entryY=1.004;entryDx=0;entryDy=0;entryPerimeter=0;" edge="1" parent="WIyWlLk6GJQsqaUBKTNV-1" source="-8hRT2i1nHLTr9b380bQ-4" target="-8hRT2i1nHLTr9b380bQ-19">
          <mxGeometry relative="1" as="geometry" />
        </mxCell>
        <mxCell id="-8hRT2i1nHLTr9b380bQ-42" style="edgeStyle=orthogonalEdgeStyle;rounded=0;orthogonalLoop=1;jettySize=auto;html=1;entryX=0.477;entryY=1;entryDx=0;entryDy=0;entryPerimeter=0;" edge="1" parent="WIyWlLk6GJQsqaUBKTNV-1" source="-8hRT2i1nHLTr9b380bQ-16" target="-8hRT2i1nHLTr9b380bQ-31">
          <mxGeometry relative="1" as="geometry" />
        </mxCell>
      </root>
    </mxGraphModel>
  </diagram>
</mxfile>
